<svg width="32" height="32" viewBox="0 0 32 32" fill="none" xmlns="http://www.w3.org/2000/svg">
<circle cx="16" cy="16" r="16" fill="#FF9E9E"/>
<path fill-rule="evenodd" clip-rule="evenodd" d="M16 10C14.067 10 12.5 11.567 12.5 13.5C12.5 15.433 14.067 17 16 17C17.933 17 19.5 15.433 19.5 13.5C19.5 11.567 17.933 10 16 10ZM11.5 13.5C11.5 11.0147 13.5147 9 16 9C18.4853 9 20.5 11.0147 20.5 13.5C20.5 15.8163 18.75 17.7238 16.5 17.9725V20H19V21H16.5V23H15.5V21H13V20H15.5V17.9725C13.25 17.7238 11.5 15.8163 11.5 13.5Z" fill="white"/>
</svg>
