<svg width="131" height="48" viewBox="0 0 131 48" fill="none" xmlns="http://www.w3.org/2000/svg">
<path d="M48.0323 33.24C47.7283 33.24 47.4963 33.192 47.3363 33.096C47.1923 33.016 47.0963 32.896 47.0483 32.736C47.0003 32.56 46.9763 32.36 46.9763 32.136V17.568C46.9763 17.36 47.0003 17.176 47.0483 17.016C47.1123 16.856 47.2243 16.728 47.3843 16.632C47.5443 16.536 47.7683 16.488 48.0563 16.488H53.3123C54.0803 16.488 54.7843 16.608 55.4243 16.848C56.0803 17.072 56.6483 17.424 57.1283 17.904C57.6243 18.368 58.0083 18.936 58.2803 19.608C58.5523 20.28 58.6883 21.056 58.6883 21.936C58.6883 22.8 58.5523 23.568 58.2803 24.24C58.0083 24.912 57.6243 25.48 57.1283 25.944C56.6323 26.392 56.0563 26.736 55.4003 26.976C54.7603 27.216 54.0563 27.336 53.2883 27.336H49.1603V32.16C49.1603 32.384 49.1283 32.576 49.0643 32.736C49.0163 32.896 48.9123 33.016 48.7523 33.096C48.6083 33.192 48.3683 33.24 48.0323 33.24ZM49.1603 25.152H53.3123C53.9523 25.152 54.5123 25.032 54.9923 24.792C55.4723 24.536 55.8483 24.168 56.1203 23.688C56.3923 23.192 56.5283 22.592 56.5283 21.888C56.5283 21.216 56.4003 20.64 56.1443 20.16C55.8883 19.68 55.5123 19.312 55.0163 19.056C54.5363 18.8 53.9603 18.672 53.2883 18.672H49.1603V25.152ZM71.1344 33.216C70.7824 33.216 70.5264 33.144 70.3664 33C70.2224 32.856 70.1344 32.632 70.1024 32.328L70.1984 31.128C70.0384 31.384 69.7904 31.68 69.4544 32.016C69.1184 32.336 68.6784 32.624 68.1344 32.88C67.5904 33.12 66.9264 33.24 66.1424 33.24C65.3744 33.24 64.6544 33.088 63.9824 32.784C63.3264 32.48 62.7424 32.056 62.2304 31.512C61.7344 30.968 61.3424 30.344 61.0544 29.64C60.7824 28.936 60.6464 28.184 60.6464 27.384C60.6464 26.6 60.7824 25.864 61.0544 25.176C61.3424 24.472 61.7424 23.856 62.2544 23.328C62.7664 22.8 63.3504 22.384 64.0064 22.08C64.6784 21.776 65.3904 21.624 66.1424 21.624C66.8464 21.624 67.4464 21.72 67.9424 21.912C68.4384 22.088 68.8624 22.328 69.2144 22.632C69.5824 22.92 69.9024 23.248 70.1744 23.616L70.1264 22.608C70.1104 22.256 70.1824 22.008 70.3424 21.864C70.5184 21.704 70.7904 21.624 71.1584 21.624C71.4624 21.624 71.6784 21.672 71.8064 21.768C71.9504 21.864 72.0464 22 72.0944 22.176C72.1424 22.352 72.1664 22.568 72.1664 22.824V32.088C72.1664 32.312 72.1424 32.512 72.0944 32.688C72.0464 32.864 71.9504 32.992 71.8064 33.072C71.6624 33.168 71.4384 33.216 71.1344 33.216ZM66.5024 31.224C67.1424 31.224 67.7264 31.056 68.2544 30.72C68.7984 30.384 69.2224 29.936 69.5264 29.376C69.8464 28.8 70.0064 28.144 70.0064 27.408C70.0064 26.656 69.8384 26 69.5024 25.44C69.1824 24.864 68.7504 24.416 68.2064 24.096C67.6784 23.76 67.0944 23.592 66.4544 23.592C65.7024 23.592 65.0464 23.768 64.4864 24.12C63.9424 24.456 63.5104 24.912 63.1904 25.488C62.8704 26.064 62.7104 26.72 62.7104 27.456C62.7104 28.176 62.8704 28.824 63.1904 29.4C63.5104 29.96 63.9504 30.408 64.5104 30.744C65.0864 31.064 65.7504 31.224 66.5024 31.224ZM79.0596 33.168C78.8196 33.168 78.6276 33.128 78.4836 33.048C78.3556 32.984 78.2516 32.896 78.1716 32.784C78.1076 32.656 78.0596 32.52 78.0276 32.376L74.3076 22.92C74.2276 22.68 74.1876 22.48 74.1876 22.32C74.2036 22.16 74.2676 22.024 74.3796 21.912C74.5076 21.8 74.6916 21.704 74.9316 21.624C75.3156 21.48 75.6116 21.448 75.8196 21.528C76.0276 21.592 76.1956 21.8 76.3236 22.152L79.0596 29.448L81.6036 22.32C81.6516 22.192 81.7076 22.072 81.7716 21.96C81.8516 21.832 81.9636 21.728 82.1076 21.648C82.2516 21.568 82.4356 21.528 82.6596 21.528C82.9156 21.528 83.1076 21.568 83.2356 21.648C83.3796 21.728 83.4916 21.824 83.5716 21.936C83.6676 22.048 83.7316 22.168 83.7636 22.296L86.2836 29.496L89.0196 22.272C89.1636 21.888 89.3396 21.64 89.5476 21.528C89.7716 21.416 90.0756 21.432 90.4596 21.576C90.7956 21.688 91.0196 21.848 91.1316 22.056C91.2436 22.264 91.2196 22.56 91.0596 22.944L87.3396 32.4C87.2916 32.528 87.2276 32.656 87.1476 32.784C87.0836 32.896 86.9796 32.984 86.8356 33.048C86.7076 33.128 86.5316 33.168 86.3076 33.168C86.0836 33.168 85.9076 33.136 85.7796 33.072C85.6516 33.008 85.5476 32.912 85.4676 32.784C85.3876 32.64 85.3156 32.488 85.2516 32.328L82.6836 24.936L80.0916 32.328C80.0276 32.52 79.9556 32.68 79.8756 32.808C79.8116 32.936 79.7156 33.024 79.5876 33.072C79.4596 33.136 79.2836 33.168 79.0596 33.168ZM95.2396 33.264C94.9516 33.264 94.7276 33.216 94.5676 33.12C94.4236 33.024 94.3276 32.896 94.2796 32.736C94.2316 32.56 94.2076 32.36 94.2076 32.136V20.088C94.2076 19.448 94.2796 18.888 94.4236 18.408C94.5676 17.928 94.8076 17.528 95.1436 17.208C95.4796 16.888 95.9036 16.648 96.4156 16.488C96.9436 16.312 97.5916 16.224 98.3596 16.224C98.5676 16.224 98.7516 16.248 98.9116 16.296C99.0876 16.328 99.2156 16.424 99.2956 16.584C99.3916 16.728 99.4396 16.952 99.4396 17.256C99.4396 17.56 99.3916 17.792 99.2956 17.952C99.1996 18.096 99.0716 18.192 98.9116 18.24C98.7516 18.288 98.5596 18.312 98.3356 18.312C97.9676 18.312 97.6476 18.328 97.3756 18.36C97.1196 18.392 96.9196 18.464 96.7756 18.576C96.6316 18.688 96.5196 18.864 96.4396 19.104C96.3756 19.328 96.3436 19.64 96.3436 20.04V32.208C96.3436 32.416 96.3116 32.6 96.2476 32.76C96.1996 32.92 96.0956 33.04 95.9356 33.12C95.7916 33.216 95.5596 33.264 95.2396 33.264ZM92.9836 21.888L95.2876 21.912L98.6236 21.864C98.8476 21.864 99.0396 21.888 99.1996 21.936C99.3596 21.968 99.4796 22.064 99.5596 22.224C99.6556 22.368 99.7036 22.592 99.7036 22.896C99.7036 23.2 99.6636 23.432 99.5836 23.592C99.5036 23.736 99.3836 23.832 99.2236 23.88C99.0636 23.928 98.8716 23.952 98.6476 23.952L95.3596 23.904L92.9356 23.928C92.5996 23.928 92.3676 23.848 92.2396 23.688C92.1276 23.528 92.0716 23.264 92.0716 22.896C92.0716 22.544 92.1436 22.288 92.2876 22.128C92.4316 21.968 92.6636 21.888 92.9836 21.888ZM102.704 33.24C102.4 33.24 102.168 33.192 102.008 33.096C101.864 33.016 101.768 32.896 101.72 32.736C101.672 32.576 101.648 32.384 101.648 32.16V22.68C101.648 22.456 101.672 22.264 101.72 22.104C101.768 21.944 101.864 21.824 102.008 21.744C102.168 21.664 102.408 21.624 102.728 21.624C103.032 21.624 103.256 21.672 103.4 21.768C103.544 21.848 103.64 21.968 103.688 22.128C103.736 22.288 103.76 22.488 103.76 22.728V32.184C103.76 32.408 103.736 32.6 103.688 32.76C103.64 32.92 103.536 33.04 103.376 33.12C103.232 33.2 103.008 33.24 102.704 33.24ZM102.704 18.744C102.352 18.744 102.088 18.696 101.912 18.6C101.736 18.488 101.616 18.336 101.552 18.144C101.504 17.952 101.48 17.728 101.48 17.472C101.48 17.216 101.512 17 101.576 16.824C101.64 16.632 101.76 16.496 101.936 16.416C102.112 16.32 102.376 16.272 102.728 16.272C103.064 16.272 103.32 16.32 103.496 16.416C103.672 16.512 103.784 16.656 103.832 16.848C103.896 17.04 103.928 17.264 103.928 17.52C103.928 17.776 103.896 18 103.832 18.192C103.784 18.368 103.672 18.504 103.496 18.6C103.32 18.696 103.056 18.744 102.704 18.744ZM111.987 33.288C111.715 33.288 111.491 33.248 111.315 33.168C111.155 33.088 111.019 32.944 110.907 32.736L106.467 23.064C106.291 22.68 106.251 22.392 106.347 22.2C106.443 21.992 106.667 21.8 107.019 21.624C107.339 21.464 107.611 21.416 107.835 21.48C108.059 21.528 108.251 21.736 108.411 22.104L111.987 30.624L115.491 22.344C115.667 21.976 115.859 21.712 116.067 21.552C116.275 21.392 116.603 21.424 117.051 21.648C117.483 21.856 117.699 22.096 117.699 22.368C117.699 22.624 117.627 22.904 117.483 23.208L113.067 32.712C112.987 32.904 112.859 33.048 112.683 33.144C112.507 33.24 112.275 33.288 111.987 33.288ZM124.703 33.36C123.743 33.36 122.887 33.2 122.135 32.88C121.383 32.56 120.743 32.128 120.215 31.584C119.703 31.024 119.311 30.384 119.039 29.664C118.767 28.944 118.631 28.168 118.631 27.336C118.631 26.232 118.887 25.248 119.399 24.384C119.911 23.52 120.615 22.84 121.511 22.344C122.423 21.832 123.463 21.576 124.631 21.576C125.431 21.576 126.143 21.704 126.767 21.96C127.407 22.2 127.951 22.528 128.399 22.944C128.847 23.36 129.191 23.824 129.431 24.336C129.671 24.848 129.791 25.36 129.791 25.872C129.791 26.688 129.599 27.264 129.215 27.6C128.831 27.92 128.359 28.08 127.799 28.08H120.863C120.847 28.784 121.031 29.392 121.415 29.904C121.815 30.4 122.311 30.784 122.903 31.056C123.511 31.328 124.119 31.464 124.727 31.464C125.175 31.464 125.559 31.44 125.879 31.392C126.199 31.344 126.479 31.28 126.719 31.2C126.959 31.12 127.167 31.04 127.343 30.96C127.519 30.88 127.671 30.8 127.799 30.72C127.943 30.64 128.079 30.584 128.207 30.552C128.351 30.52 128.487 30.536 128.615 30.6C128.759 30.648 128.871 30.752 128.951 30.912C129.047 31.04 129.111 31.16 129.143 31.272C129.175 31.384 129.191 31.504 129.191 31.632C129.191 31.856 128.999 32.104 128.615 32.376C128.231 32.648 127.695 32.88 127.007 33.072C126.335 33.264 125.567 33.36 124.703 33.36ZM120.863 26.664H126.887C127.191 26.664 127.415 26.624 127.559 26.544C127.719 26.464 127.799 26.248 127.799 25.896C127.799 25.448 127.663 25.048 127.391 24.696C127.119 24.328 126.743 24.032 126.263 23.808C125.799 23.584 125.263 23.472 124.655 23.472C123.951 23.472 123.303 23.616 122.711 23.904C122.135 24.176 121.679 24.552 121.343 25.032C121.007 25.512 120.847 26.056 120.863 26.664Z" fill="#48466D"/>
<path d="M25.246 24.6789C25.0286 24.7034 24.5522 24.5827 23.8662 24.1702C23.4669 23.9304 22.9482 24.0585 22.7071 24.4585C22.4668 24.858 22.5957 25.377 22.9954 25.6175C23.9392 26.1849 24.7603 26.4345 25.437 26.3573C27.0426 26.1746 28.235 27.2047 28.6637 28.2385C28.8814 28.764 29.2344 30.1094 27.811 31.2426C27.3714 31.593 26.813 31.8256 26.2403 31.8986C26.0398 31.9235 25.8271 31.9304 25.6018 31.9377C25.0515 31.9545 24.4278 31.9739 23.7908 32.2787C23.7514 32.2977 23.7139 32.3193 23.6778 32.3439C23.0955 32.743 22.7667 33.2736 22.477 33.7418C22.358 33.9332 22.246 34.1145 22.1242 34.2757C21.7747 34.7352 21.2944 35.1019 20.7707 35.308C20.4299 35.4422 20.0927 35.5165 19.7693 35.5288C19.303 35.5464 18.9397 35.9384 18.9575 36.4045C18.9751 36.8708 19.3671 37.2341 19.8332 37.2163C20.3471 37.197 20.871 37.0837 21.3893 36.8796C21.6091 36.7932 21.8218 36.6904 22.0253 36.5729C22.5815 36.2518 23.0727 35.8186 23.4688 35.2968C23.6394 35.0722 23.7786 34.848 23.9128 34.6311C24.1294 34.2812 24.3187 33.9754 24.5796 33.7758C24.8833 33.6498 25.242 33.6386 25.6536 33.626C25.9086 33.6182 26.1718 33.6101 26.4517 33.5747C27.3402 33.4622 28.173 33.113 28.8627 32.5648C30.4492 31.3017 30.9704 29.3964 30.223 27.5929C29.4127 25.6359 27.3659 24.4383 25.2459 24.679L25.246 24.6789Z" fill="#FF9E9E"/>
<path d="M18.3152 35.0977C17.7047 34.6657 17.2806 33.9578 17.1518 33.1545C17.0184 32.3233 17.2227 31.4899 17.7266 30.8082C18.4989 29.7642 18.3193 27.8835 18.2063 27.1237C17.9868 25.6485 18.2424 24.7984 19.061 24.2816C19.0721 24.2749 19.0826 24.2678 19.0929 24.2602C19.098 24.2572 19.1031 24.2543 19.108 24.2511L19.1414 24.2294C19.8125 23.8923 20.4713 23.9509 21.2729 24.4188C21.6755 24.6532 22.1925 24.5186 22.4278 24.1152C22.6627 23.7122 22.5271 23.1952 22.1242 22.9602C20.8101 22.1932 19.5344 22.1215 18.2996 22.7639C18.2767 22.7772 18.2552 22.7906 18.2367 22.8033C18.2058 22.8198 18.1626 22.8458 18.1145 22.882C16.0667 24.213 16.4194 26.5878 16.5357 27.3717C16.6939 28.4362 16.6241 29.4589 16.369 29.8041C15.5925 30.8539 15.2786 32.1389 15.4844 33.4224C15.6851 34.6711 16.3611 35.7841 17.3397 36.4762C17.6174 36.6727 17.9736 36.6778 18.2501 36.5182C18.3524 36.4591 18.4439 36.3774 18.5165 36.2746C18.786 35.8939 18.696 35.3675 18.3152 35.0977L18.3152 35.0977Z" fill="#FF9E9E"/>
<path d="M11.262 26.3901C9.71259 24.6258 7.41965 24.0203 5.81045 24.9494C5.6559 25.0386 5.50828 25.1422 5.37295 25.257C4.73447 25.7967 4.34598 26.5933 4.2784 27.5004C4.18554 28.749 4.68259 30.0911 5.64162 31.1832C7.191 32.9475 9.48394 33.553 11.0931 32.6239C11.2477 32.5347 11.3953 32.4311 11.5306 32.3162C12.1691 31.7766 12.5576 30.9793 12.625 30.072C12.7181 28.8244 12.221 27.4822 11.262 26.3901L11.262 26.3901ZM10.9412 29.9477C10.9175 30.2671 10.8113 30.7134 10.4404 31.0275C9.60631 31.7331 7.97289 31.2793 6.9103 30.0695C6.25804 29.3267 5.90361 28.4136 5.96192 27.6264C5.98563 27.3071 6.09183 26.8608 6.46233 26.5473C6.52146 26.4972 6.58617 26.452 6.65427 26.4127C7.5395 25.9016 9.00544 26.3817 9.99247 27.5052C10.6455 28.2469 10.9996 29.1601 10.9412 29.9478L10.9412 29.9477Z" fill="#FF9E9E"/>
<path d="M9.6605 22.7047C10.6563 23.0649 11.6578 23.0073 12.4459 22.5523C12.5109 22.5148 12.5742 22.4748 12.6365 22.4314C13.4496 21.8684 13.9243 20.8878 13.9383 19.7419C13.9515 18.6863 13.5857 17.5655 12.9077 16.5873C11.4228 14.4437 8.9702 13.6505 7.34132 14.7859C6.65477 15.2611 6.20616 16.0326 6.07777 16.9574C6.01368 17.4195 6.33624 17.8457 6.7983 17.9098C7.26035 17.9739 7.68665 17.6509 7.75064 17.1892C7.79481 16.87 7.92659 16.4344 8.30251 16.1739C9.12601 15.6083 10.6049 16.2285 11.5191 17.5488C11.9918 18.2315 12.2582 19.0233 12.2493 19.7211C12.2448 20.0692 12.1648 20.7039 11.6745 21.0432C11.1856 21.3836 10.5619 21.2346 10.2349 21.1164C9.5787 20.8791 8.93088 20.3513 8.45821 19.6687C8.27694 19.4071 8.12536 19.1305 8.00864 18.8476C7.83001 18.4169 7.33602 18.2121 6.90532 18.3908C6.47671 18.5695 6.26978 19.0634 6.44845 19.4941C6.61165 19.8875 6.82075 20.2697 7.07008 20.6297C7.74736 21.609 8.66751 22.3458 9.66061 22.7048L9.6605 22.7047Z" fill="#FF9E9E"/>
<path d="M26.6941 12.9477C24.7531 13.6444 23.8914 16.1351 24.7302 18.6146C25.1962 19.9906 26.1103 21.0927 27.2372 21.6364C28.0564 22.0315 28.9413 22.0936 29.7276 21.8107C29.8977 21.7495 30.0601 21.6738 30.2151 21.5843C30.8933 21.1928 31.4199 20.5378 31.7244 19.6946C31.8826 19.256 31.6553 18.7721 31.2165 18.614C30.7777 18.4559 30.294 18.6831 30.136 19.1219C29.9361 19.6756 29.5876 20.0673 29.1564 20.2217C28.6995 20.3862 28.26 20.2547 27.9715 20.1152C27.2606 19.7721 26.6467 19.0085 26.33 18.0726C25.8063 16.5265 26.2358 14.9061 27.2657 14.5363C27.7221 14.3721 28.1621 14.5033 28.4505 14.6425C29.1614 14.9856 29.7753 15.7492 30.0921 16.6853C30.1735 16.926 30.2337 17.1728 30.2713 17.4187C30.3416 17.8796 30.7719 18.1967 31.2328 18.1264C31.693 18.0553 32.0105 17.6258 31.9406 17.1649C31.8883 16.8211 31.8046 16.4776 31.6914 16.1431C31.2251 14.7665 30.3113 13.665 29.1836 13.1211C28.3646 12.7262 27.4806 12.665 26.6941 12.9477L26.6941 12.9477Z" fill="#FF9E9E"/>
<path d="M20.6152 17.825C20.685 17.7922 20.7531 17.7563 20.8189 17.7183C22.4638 16.7686 22.9017 14.3549 21.8382 12.1041C21.3295 11.0281 20.5426 10.1505 19.6216 9.63422C18.6219 9.07363 17.5357 8.99446 16.6415 9.41689C14.8293 10.2724 14.3119 12.797 15.4184 15.1382C15.9271 16.2142 16.7145 17.0915 17.635 17.6081C18.6347 18.1687 19.7212 18.2477 20.6152 17.825L20.6152 17.825ZM16.9451 14.4166C16.2826 13.0146 16.4335 11.4755 17.2817 10.9858C17.308 10.9706 17.3348 10.9565 17.3627 10.9434C17.902 10.6885 18.4918 10.9366 18.7956 11.1067C19.4042 11.448 19.957 12.0745 20.3115 12.8253C20.9944 14.2707 20.8086 15.8653 19.8937 16.2979C19.3549 16.5526 18.7649 16.3052 18.4614 16.1346C17.8525 15.7939 17.3001 15.1669 16.9451 14.4166L16.9451 14.4166Z" fill="#FF9E9E"/>
<path d="M25.3712 9.25281C25.2198 9.30754 25.0697 9.36735 24.9218 9.43269C22.6387 5.66488 18.368 4.01272 14.8674 5.66649C12.9479 6.57713 11.5914 8.33041 11.0679 10.5022C9.10978 9.92406 7.10586 10.1218 5.44201 11.0824C5.28542 11.1728 5.13215 11.2702 4.97859 11.3758C1.79803 13.5794 1.09367 18.1042 3.21476 21.9653C3.08344 22.0612 2.95659 22.1613 2.83367 22.2653C1.4133 23.4655 0.552412 25.1931 0.408276 27.1285C0.238129 29.4217 1.09418 31.8208 2.75612 33.7129C4.73729 35.9688 7.55304 37.1548 10.2283 36.8977C13.7134 42.3362 20.9185 44.1314 26.5692 40.869L29.7168 39.0517C35.3833 35.7802 37.4253 28.6124 34.4222 22.8667C35.9164 20.6864 36.268 17.6944 35.3251 14.9098C34.5171 12.5244 32.8674 10.5834 30.7968 9.5843C29.0488 8.74061 27.1219 8.62248 25.3714 9.25265L25.3712 9.25281ZM33.7256 15.4517C34.5533 17.896 34.1856 20.5084 32.7657 22.269C32.537 22.552 32.5247 22.9365 32.7012 23.2315C32.7058 23.2401 32.7079 23.249 32.7129 23.2577C35.6056 28.268 33.8828 34.697 28.8727 37.5896L25.7251 39.4069C20.7148 42.2995 14.2858 40.5768 11.3932 35.5666C11.3898 35.5608 11.3852 35.5563 11.3816 35.5506C11.3648 35.5232 11.3457 35.4985 11.326 35.4738C11.311 35.4543 11.2965 35.4338 11.2801 35.416C11.2608 35.3956 11.2397 35.3778 11.2185 35.3594C11.198 35.3417 11.1788 35.3225 11.1569 35.3069C11.1352 35.2912 11.1115 35.2784 11.0886 35.2651C11.0651 35.2515 11.0428 35.2365 11.0182 35.2251C10.9928 35.2129 10.9658 35.2051 10.9393 35.1956C10.915 35.1871 10.8913 35.1773 10.8664 35.1713C10.8396 35.1644 10.8123 35.1618 10.7842 35.1573C10.7572 35.1535 10.7309 35.1486 10.7036 35.1467C10.679 35.1452 10.6538 35.1475 10.6285 35.1485C10.5969 35.1498 10.566 35.151 10.5346 35.1555C10.5277 35.1564 10.5211 35.1558 10.5144 35.157C8.2499 35.5578 5.76337 34.5774 4.02493 32.5977C2.66013 31.0442 1.95584 29.0963 2.09218 27.2535C2.2023 25.7733 2.85254 24.46 3.9247 23.5537C4.15257 23.3606 4.40211 23.1855 4.66608 23.0331L4.75925 22.9807C4.97238 22.8675 5.12277 22.6739 5.18177 22.4433C5.24075 22.2127 5.19941 21.968 5.06809 21.7694C2.93386 18.5369 3.31642 14.5814 5.93911 12.7645C7.48969 11.6962 9.48273 11.5819 11.3865 12.4122C11.6321 12.5196 11.9147 12.5037 12.1465 12.3699C12.3783 12.236 12.5333 11.9997 12.5635 11.7333C12.7963 9.66952 13.9219 7.98758 15.5902 7.19242C18.4771 5.82831 22.0949 7.47421 23.8265 10.9392C23.9328 11.1522 24.124 11.3101 24.3533 11.3746C24.582 11.4391 24.8214 11.4067 25.03 11.2774L25.122 11.2229C25.3844 11.0714 25.6614 10.9428 25.9437 10.841C27.2638 10.3658 28.7271 10.4602 30.0635 11.1046C31.7282 11.9089 33.0629 13.4928 33.7259 15.4515L33.7256 15.4517Z" fill="#FF9E9E"/>
</svg>
