<svg width="32" height="32" viewBox="0 0 32 32" fill="none" xmlns="http://www.w3.org/2000/svg">
<circle cx="16" cy="16" r="16" fill="#B1E0DA"/>
<path fill-rule="evenodd" clip-rule="evenodd" d="M17 9H23V15H22V10.7071L17.8715 14.8356C18.5768 15.6976 19 16.7994 19 18C19 20.7614 16.7614 23 14 23C11.2386 23 9 20.7614 9 18C9 15.2386 11.2386 13 14 13C15.2006 13 16.3024 13.4232 17.1644 14.1285L21.2929 10H17V9ZM14 14C11.7909 14 10 15.7909 10 18C10 20.2091 11.7909 22 14 22C16.2091 22 18 20.2091 18 18C18 15.7909 16.2091 14 14 14Z" fill="white"/>
</svg>
