<svg width="22" height="28" viewBox="0 0 22 28" fill="none" xmlns="http://www.w3.org/2000/svg">
<path d="M13.303 7C12.9473 7 12.5952 7.07131 12.2675 7.20971C11.9398 7.34812 11.6431 7.55081 11.3951 7.8058L11.0019 8.2112L10.6049 7.8058C10.3569 7.55081 10.0603 7.34813 9.73258 7.20973C9.40489 7.07133 9.05278 7.00002 8.69707 7.00002C8.34135 7.00002 7.98924 7.07133 7.66155 7.20973C7.33386 7.34813 7.03724 7.55081 6.78922 7.8058C6.28305 8.32802 6 9.02673 6 9.754C6 10.4813 6.28305 11.18 6.78922 11.7022L11.0019 16L15.2108 11.7022C15.717 11.18 16 10.4813 16 9.754C16 9.02673 15.717 8.32802 15.2108 7.8058C14.9628 7.55082 14.6662 7.34814 14.3385 7.20973C14.0108 7.07133 13.6587 7.00001 13.303 7Z" fill="white"/>
<path d="M11 0C8.08372 0.0035461 5.28789 1.16361 3.22575 3.22574C1.16362 5.28787 0.00355747 8.08371 1.13737e-05 11C-0.00343218 13.3833 0.775152 15.7018 2.21631 17.6C2.21631 17.6 2.51631 17.9945 2.56451 18.0517L11 28L19.439 18.0474C19.4834 17.9941 19.7837 17.5996 19.7837 17.5996L19.7852 17.5972C21.2255 15.6997 22.0036 13.3822 22 11C21.9965 8.08371 20.8364 5.28787 18.7743 3.22574C16.7121 1.16361 13.9163 0.0035461 11 0V0ZM15.2109 11.7021L11.002 16L6.78911 11.7021C6.28295 11.1799 5.9999 10.4812 5.9999 9.7539C5.9999 9.02663 6.28295 8.32792 6.78911 7.8057C7.03717 7.55073 7.33381 7.34806 7.66151 7.20968C7.98922 7.07129 8.34134 6.99999 8.69706 6.99999C9.05279 6.99999 9.40491 7.07129 9.73261 7.20968C10.0603 7.34806 10.357 7.55073 10.605 7.8057L11.002 8.2114L11.395 7.8057C11.6431 7.55073 11.9397 7.34806 12.2674 7.20968C12.5951 7.07129 12.9472 6.99999 13.303 6.99999C13.6587 6.99999 14.0108 7.07129 14.3385 7.20968C14.6662 7.34806 14.9629 7.55073 15.2109 7.8057C15.7171 8.32792 16.0001 9.02663 16.0001 9.7539C16.0001 10.4812 15.7171 11.1799 15.2109 11.7021Z" fill="#48466D"/>
</svg>
