<svg width="18" height="18" viewBox="0 0 18 18" fill="none" xmlns="http://www.w3.org/2000/svg">
<path fill-rule="evenodd" clip-rule="evenodd" d="M7 3.23848V13.1657C7.03453 13.1767 7.06877 13.1889 7.10265 13.2025L11 14.7615V4.83423C10.9655 4.82325 10.9312 4.81099 10.8974 4.79744L7 3.23848ZM12 4.802V14.691L14.7236 13.3291C14.893 13.2444 15 13.0713 15 12.8819L15 3.30898L12.1253 4.74636C12.0842 4.7669 12.0424 4.78545 12 4.802ZM6 13.1979V3.30898L3.27639 4.6708C3.107 4.7555 3 4.92863 3 5.11801V14.691L5.87473 13.2536C5.9158 13.233 5.9576 13.2145 6 13.1979ZM5.87473 2.25358C6.25796 2.06196 6.70483 2.04337 7.10265 2.2025L11.2687 3.86896C11.4014 3.922 11.5503 3.91581 11.6781 3.85194L14.5528 2.41455C15.2177 2.0821 16 2.5656 16 3.30898V12.8819C16 13.4501 15.679 13.9695 15.1708 14.2236L12.1253 15.7464C11.742 15.938 11.2952 15.9566 10.8974 15.7974L6.73125 14.131C6.59865 14.0779 6.44969 14.0841 6.32195 14.148L3.44722 15.5854C2.78231 15.9178 2 15.4343 2 14.691V5.11801C2 4.54985 2.321 4.03046 2.82917 3.77637L5.87473 2.25358Z" fill="#FF9E9E"/>
</svg>
