<svg width="157" height="42" viewBox="0 0 157 42" fill="none" xmlns="http://www.w3.org/2000/svg">
<g opacity="0.15">
<path d="M5.08205 27.8965L5.26592 27.8723L5.569 27.853L5.76027 27.845L6.16462 27.8778L6.58205 27.9828L7.01966 28.1762L7.52789 28.3964L7.95822 28.5736L8.41376 28.7199L8.84734 28.8177L9.28977 28.8919L9.85296 28.9312L10.2266 28.9389L10.6472 28.9643L11.1221 29.0239L11.5792 29.1304L11.8378 29.2288L12.08 29.3345L12.3678 29.4978L12.6288 29.7316L12.9264 30.0466L13.1429 30.3981L13.3181 30.7875L13.4375 31.1828L13.4839 31.8057L13.3611 32.4855L13.1741 32.9795L12.9449 33.3362L12.6672 33.7148L12.2241 34.2458L11.8386 34.7315L11.5811 35.1985L11.288 35.7596L10.7903 37.2519L10.7531 37.3857L10.5222 37.7822L10.221 38.1519L9.78597 38.4842L9.37762 38.7459L8.89881 38.9808L8.55287 39.0779L8.03342 39.1358L7.51728 39.1144L7.12336 39.0184L6.70032 38.8574L6.26585 38.5845L5.85075 38.2248L5.61638 37.9204L5.36658 37.4082L5.25376 36.8541L5.26085 36.4801L5.2997 36.3066L5.33035 35.9415L5.36822 35.5928L5.40455 35.2838L5.40121 34.973L5.4035 34.7183L5.35889 34.4457L5.25824 34.1787L5.07091 33.8922L4.92011 33.6868L4.57397 33.3937L4.14271 33.0413L3.73164 32.7773L3.38395 32.524L3.08481 32.2487L2.87394 31.9533L2.73367 31.6846L2.64763 31.4501L2.58435 31.0493L2.59051 30.5001L2.67136 30.0735L2.85836 29.5796L3.07293 29.1904L3.41554 28.7826L3.7784 28.4632L4.11298 28.2542L4.48564 28.0866L4.70366 28.0081L5.08205 27.8965Z" fill="#48466D"/>
<path d="M17.5387 25.6315C17.004 24.7146 15.5124 24.5887 14.2071 25.3503C12.9019 26.1121 12.2772 27.473 12.812 28.39C13.3466 29.3069 14.8383 29.4328 16.1436 28.6712C17.4488 27.9094 18.0735 26.5485 17.5387 25.6315Z" fill="#48466D"/>
<path d="M16.6096 29.6893C15.1737 30.1605 14.2782 31.3601 14.6096 32.3686C14.941 33.3772 16.3736 33.8126 17.8095 33.3413C19.2454 32.8701 20.1408 31.6706 19.8095 30.662C19.478 29.6536 18.0454 29.218 16.6096 29.6893Z" fill="#48466D"/>
<path d="M12.0254 23.8721C11.3902 23.0216 9.90054 23.0613 8.69818 23.9605C7.49585 24.8598 7.03598 26.2783 7.67116 27.1288C8.30629 27.9791 9.79598 27.9395 10.9983 27.0402C12.2007 26.141 12.6605 24.7224 12.0254 23.8721Z" fill="#48466D"/>
<path d="M14.4083 34.6209C12.9378 34.9239 11.9198 36.0122 12.1347 37.0517C12.3496 38.0911 13.7161 38.688 15.1866 38.3851C16.6572 38.082 17.6752 36.9938 17.4603 35.9544C17.2453 34.9149 15.8789 34.3179 14.4083 34.6209Z" fill="#48466D"/>
</g>
<g opacity="0.15">
<path d="M140.689 31.1522L140.874 31.1491L141.177 31.1237L141.367 31.1036L141.762 31.0119L142.16 30.8467L142.564 30.5912L143.035 30.2989L143.434 30.0604L143.864 29.8489L144.278 29.6886L144.705 29.5503L145.256 29.4287L145.625 29.3663L146.037 29.2794L146.498 29.1508L146.935 28.9784L147.176 28.8432L147.4 28.7031L147.661 28.4993L147.885 28.2297L148.133 27.8746L148.295 27.4951L148.411 27.0841L148.472 26.6756L148.426 26.0526L148.205 25.3982L147.947 24.937L147.668 24.6178L147.338 24.284L146.822 23.8238L146.369 23.3999L146.046 22.9757L145.674 22.4637L144.963 21.0605L144.906 20.9336L144.62 20.5753L144.267 20.2539L143.788 19.9889L143.346 19.79L142.838 19.6278L142.482 19.5826L141.959 19.6015L141.452 19.6984L141.076 19.8512L140.681 20.0725L140.292 20.4061L139.934 20.8228L139.747 21.1584L139.575 21.7016L139.544 22.2663L139.606 22.6352L139.67 22.8011L139.754 23.1578L139.843 23.4972L139.924 23.7975L139.966 24.1054L140.006 24.3571L140.002 24.6332L139.941 24.9121L139.798 25.223L139.679 25.4483L139.38 25.789L139.005 26.2008L138.637 26.5223L138.33 26.8239L138.075 27.1401L137.909 27.4633L137.81 27.7496L137.759 27.9941L137.755 28.3999L137.842 28.9422L137.985 29.3524L138.242 29.8136L138.511 30.167L138.91 30.5202L139.316 30.7829L139.678 30.9405L140.071 31.0517L140.298 31.0973L140.689 31.1522Z" fill="#48466D"/>
<path d="M153.343 31.5652C152.949 32.5506 151.492 32.894 150.089 32.3321C148.686 31.7701 147.868 30.5155 148.263 29.53C148.657 28.5445 150.114 28.2012 151.517 28.763C152.92 29.325 153.737 30.5796 153.343 31.5652Z" fill="#48466D"/>
<path d="M151.829 27.6876C150.339 27.4321 149.277 26.3768 149.457 25.3306C149.637 24.2844 150.99 23.6435 152.48 23.899C153.969 24.1545 155.031 25.2097 154.851 26.2559C154.671 27.3021 153.318 27.9431 151.829 27.6876Z" fill="#48466D"/>
<path d="M148.147 34.1144C147.644 35.0489 146.164 35.2282 144.843 34.5151C143.522 33.8019 142.859 32.4662 143.362 31.5318C143.866 30.5974 145.345 30.418 146.667 31.1312C147.988 31.8443 148.651 33.1801 148.147 34.1144Z" fill="#48466D"/>
<path d="M148.928 23.1323C147.428 23.0483 146.262 22.1211 146.322 21.0614C146.382 20.0017 147.646 19.2107 149.145 19.2946C150.644 19.3787 151.811 20.3058 151.751 21.3654C151.691 22.4252 150.427 23.2162 148.928 23.1323Z" fill="#48466D"/>
</g>
<g opacity="0.15">
<path d="M26.3329 6.28834L26.5181 6.29647L26.82 6.33013L27.0097 6.35543L27.4022 6.45793L27.7951 6.63384L28.1924 6.9003L28.6547 7.2054L29.0477 7.45467L29.471 7.67783L29.881 7.84939L30.3038 7.99928L30.8516 8.13581L31.2182 8.20824L31.6281 8.30635L32.0854 8.4475L32.517 8.63177L32.7546 8.77354L32.9748 8.91969L33.2299 9.13052L33.4463 9.40607L33.6847 9.7679L33.8369 10.1517L33.9418 10.5657L33.9907 10.9756L33.9282 11.5972L33.6892 12.2453L33.4193 12.6993L33.1317 13.0107L32.7924 13.3354L32.2638 13.7814L31.7999 14.1927L31.4651 14.608L31.0791 15.1097L30.3299 16.4929L30.2699 16.6182L29.9737 16.9686L29.6129 17.2803L29.1268 17.532L28.6792 17.7188L28.1669 17.8671L27.8093 17.9026L27.2877 17.8694L26.7831 17.7587L26.4118 17.5958L26.0232 17.3637L25.6427 17.0196L25.2964 16.5933L25.1184 16.2528L24.9614 15.705L24.9465 15.1397L25.0184 14.7726L25.0868 14.6085L25.1804 14.2543L25.2782 13.9174L25.3677 13.6194L25.4183 13.3128L25.4648 13.0623L25.4682 12.7861L25.4155 12.5057L25.2807 12.191L25.1679 11.9626L24.8779 11.6138L24.5144 11.1919L24.1554 10.8605L23.857 10.5506L23.6102 10.2276L23.4538 9.90006L23.3623 9.61115L23.3183 9.36529L23.3256 8.95955L23.427 8.4198L23.5807 8.01371L23.8507 7.55971L24.1296 7.21372L24.5378 6.87158L24.9506 6.6201L25.3164 6.47235L25.7125 6.37199L25.9408 6.33257L26.3329 6.28834Z" fill="#48466D"/>
<path d="M38.9936 6.22085C38.6262 5.22502 37.1791 4.84201 35.7614 5.36541C34.3437 5.88892 33.4922 7.12071 33.8597 8.11665C34.2269 9.1125 35.6741 9.49549 37.0918 8.97209C38.5095 8.44858 39.361 7.21679 38.9936 6.22085Z" fill="#48466D"/>
<path d="M37.3741 10.0557C35.8781 10.2704 34.788 11.2963 34.9392 12.347C35.0904 13.3977 36.4257 14.0753 37.9216 13.8606C39.4175 13.6459 40.5076 12.62 40.3564 11.5693C40.2051 10.5186 38.8698 9.84086 37.3741 10.0557Z" fill="#48466D"/>
<path d="M33.8696 3.53076C33.3918 2.58293 31.9178 2.36332 30.5776 3.04009C29.2374 3.71698 28.5382 5.03403 29.016 5.98187C29.4938 6.92961 30.9678 7.14931 32.308 6.47242C33.6483 5.79565 34.3474 4.47848 33.8696 3.53076Z" fill="#48466D"/>
<path d="M34.3498 14.5301C32.849 14.5732 31.6574 15.4681 31.6886 16.5291C31.7198 17.5901 32.9618 18.4152 34.4626 18.3723C35.9634 18.3292 37.1549 17.4342 37.1238 16.3733C37.0926 15.3123 35.8506 14.4871 34.3498 14.5301Z" fill="#48466D"/>
</g>
<g opacity="0.15">
<path d="M58.9362 14.0757L59.1172 14.1159L59.4086 14.2015L59.5911 14.2593L59.9599 14.4284L60.3162 14.6699L60.6613 15.0013L61.0635 15.382L61.4073 15.6958L61.7853 15.989L62.1593 16.2292L62.5497 16.4502L63.0655 16.6798L63.414 16.8148L63.8005 16.9826L64.2264 17.201L64.6195 17.4574L64.8288 17.6383L65.0203 17.8205L65.2349 18.0724L65.4002 18.3813L65.5721 18.779L65.6553 19.1834L65.6868 19.6093L65.6637 20.0216L65.4943 20.6228L65.1464 21.2196L64.8017 21.6198L64.4644 21.8766L64.0739 22.1374L63.4759 22.4849L62.9476 22.8094L62.5458 23.1602L62.0785 23.5872L61.1005 24.8193L61.0197 24.9323L60.6672 25.2259L60.2577 25.4702L59.7352 25.6338L59.262 25.74L58.7317 25.797L58.3734 25.7699L57.8655 25.6467L57.3878 25.45L57.0505 25.2251L56.708 24.9291L56.3931 24.5241L56.126 24.0441L56.0099 23.6779L55.9503 23.1112L56.0339 22.5519L56.1684 22.2028L56.2643 22.0531L56.4179 21.7205L56.5728 21.4058L56.7126 21.1278L56.8158 20.8347L56.9051 20.5961L56.9564 20.3247L56.9531 20.0394L56.8751 19.706L56.8036 19.4615L56.5786 19.0677L56.2939 18.589L55.9979 18.2003L55.7578 17.8433L55.5709 17.4823L55.4737 17.1326L55.4338 16.8322L55.4332 16.5825L55.5108 16.1841L55.7044 15.6702L55.9263 15.297L56.271 14.8968L56.6057 14.6044L57.0671 14.3384L57.5173 14.1624L57.9032 14.0804L58.3107 14.0504L58.5424 14.0512L58.9362 14.0757Z" fill="#48466D"/>
<path d="M71.4161 16.2078C71.2273 15.1633 69.8687 14.5348 68.3816 14.8041C66.8946 15.0734 65.8421 16.1387 66.031 17.1833C66.2198 18.2278 67.5785 18.8562 69.0655 18.587C70.5526 18.3176 71.6051 17.2524 71.4161 16.2078Z" fill="#48466D"/>
<path d="M69.1552 19.7031C67.6447 19.6548 66.393 20.4758 66.3595 21.5368C66.3259 22.5978 67.5232 23.497 69.0337 23.5453C70.5442 23.5936 71.7958 22.7726 71.8294 21.7116C71.8629 20.6506 70.6656 19.7513 69.1552 19.7031Z" fill="#48466D"/>
<path d="M66.8372 12.6688C66.5312 11.6523 65.1178 11.1801 63.6804 11.6139C62.243 12.0478 61.3257 13.2234 61.6317 14.2398C61.9377 15.2561 63.3511 15.7284 64.7885 15.2946C66.2259 14.8608 67.1432 13.6851 66.8372 12.6688Z" fill="#48466D"/>
<path d="M65.4002 23.5844C63.9147 23.3662 62.5859 24.0407 62.4323 25.091C62.2788 26.1412 63.3586 27.1695 64.8441 27.3878C66.3296 27.606 67.6584 26.9315 67.812 25.8813C67.9655 24.831 66.8857 23.8027 65.4002 23.5844Z" fill="#48466D"/>
</g>
<g opacity="0.15">
<path d="M93.258 3.91213L93.4144 4.0118L93.659 4.19186L93.8107 4.30865L94.0993 4.59368L94.3516 4.94245L94.5625 5.3719L94.8103 5.86725L95.026 6.27963L95.281 6.68451L95.5503 7.0381L95.8415 7.37931L96.2476 7.77145L96.5289 8.0175L96.8348 8.30738L97.1603 8.65827L97.442 9.03368L97.5768 9.27523L97.6945 9.51192L97.8099 9.82203L97.8596 10.1689L97.8851 10.6014L97.825 11.0099L97.7089 11.4208L97.5462 11.8003L97.1814 12.3074L96.6504 12.7492L96.1896 13.0074L95.7848 13.1333L95.3286 13.2448L94.6478 13.3668L94.0404 13.491L93.5429 13.6833L92.9577 13.9247L91.6173 14.748L91.5027 14.8266L91.071 14.9819L90.6027 15.0714L90.0558 15.0464L89.5748 14.9844L89.057 14.8566L88.7295 14.7086L88.2944 14.4191L87.9128 14.0709L87.6727 13.7441L87.4522 13.3488L87.2947 12.8606L87.2079 12.3182L87.2241 11.9344L87.3619 11.3815L87.6317 10.8844L87.8775 10.6025L88.0188 10.4946L88.277 10.2346L88.5302 9.99178L88.7566 9.77843L88.9538 9.53823L89.1193 9.34455L89.2603 9.10707L89.3548 8.83785L89.3955 8.49794L89.412 8.24369L89.3352 7.79667L89.2314 7.24951L89.0862 6.78302L88.9827 6.36547L88.9305 5.96228L88.9589 5.60045L89.0241 5.30451L89.1089 5.06958L89.3181 4.72184L89.6758 4.30512L90.0119 4.03029L90.4727 3.77208L90.8872 3.61189L91.4118 3.51969L91.8951 3.50831L92.2857 3.56325L92.679 3.67439L92.8964 3.75442L93.258 3.91213Z" fill="#48466D"/>
<path d="M104.256 10.184C104.436 9.13792 103.374 8.0827 101.885 7.82711C100.395 7.57164 99.0421 8.21266 98.8624 9.25888C98.6825 10.305 99.7443 11.3602 101.234 11.6158C102.723 11.8713 104.077 11.2303 104.256 10.184Z" fill="#48466D"/>
<path d="M100.936 12.6953C99.5335 12.1333 98.0764 12.4766 97.6821 13.4622C97.2876 14.4478 98.1052 15.7022 99.5081 16.2642C100.911 16.8262 102.368 16.4828 102.762 15.4973C103.157 14.5117 102.339 13.2571 100.936 12.6953Z" fill="#48466D"/>
<path d="M101.164 5.29232C101.224 4.23255 100.057 3.30541 98.5581 3.22138C97.059 3.13747 95.7949 3.92847 95.7348 4.98825C95.6748 6.04793 96.8414 6.97516 98.3405 7.05906C99.8396 7.14309 101.104 6.35197 101.164 5.29232Z" fill="#48466D"/>
<path d="M96.08 15.0582C94.7587 14.3451 93.2793 14.5244 92.7758 15.4588C92.2723 16.3932 92.9353 17.7288 94.2566 18.442C95.5779 19.1551 97.0572 18.9758 97.5607 18.0415C98.0642 17.107 97.4012 15.7714 96.08 15.0582Z" fill="#48466D"/>
</g>
<g opacity="0.15">
<path d="M116.241 23.0379L116.397 23.1376L116.642 23.3176L116.793 23.4344L117.082 23.7194L117.334 24.0682L117.545 24.4977L117.793 24.993L118.009 25.4054L118.264 25.8103L118.533 26.1639L118.824 26.5051L119.23 26.8972L119.512 27.1433L119.817 27.4331L120.143 27.784L120.425 28.1594L120.559 28.401L120.677 28.6377L120.793 28.9478L120.842 29.2947L120.868 29.7272L120.808 30.1356L120.692 30.5466L120.529 30.9261L120.164 31.4332L119.633 31.8749L119.172 32.1331L118.767 32.2591L118.311 32.3706L117.631 32.4926L117.023 32.6168L116.526 32.809L115.94 33.0505L114.6 33.8738L114.485 33.9524L114.054 34.1077L113.585 34.1972L113.038 34.1722L112.557 34.1101L112.04 33.9824L111.712 33.8344L111.277 33.5448L110.895 33.1966L110.655 32.8699L110.435 32.4746L110.277 31.9863L110.191 31.444L110.207 31.0601L110.345 30.5072L110.614 30.0102L110.86 29.7283L111.001 29.6203L111.26 29.3604L111.513 29.1175L111.739 28.9042L111.936 28.664L112.102 28.4703L112.243 28.2328L112.338 27.9636L112.378 27.6237L112.395 27.3694L112.318 26.9224L112.214 26.3753L112.069 25.9088L111.965 25.4912L111.913 25.088L111.942 24.7262L112.007 24.4303L112.092 24.1953L112.301 23.8476L112.658 23.4309L112.995 23.156L113.455 22.8978L113.87 22.7376L114.395 22.6455L114.878 22.6341L115.268 22.689L115.662 22.8001L115.879 22.8802L116.241 23.0379Z" fill="#48466D"/>
<path d="M127.239 29.3098C127.419 28.2637 126.357 27.2085 124.868 26.9529C123.378 26.6974 122.025 27.3384 121.845 28.3846C121.665 29.4307 122.727 30.486 124.216 30.7416C125.706 30.997 127.059 30.356 127.239 29.3098Z" fill="#48466D"/>
<path d="M123.919 31.8211C122.516 31.259 121.059 31.6024 120.665 32.588C120.27 33.5735 121.088 34.828 122.491 35.39C123.894 35.952 125.351 35.6086 125.745 34.623C126.139 33.6375 125.322 32.3829 123.919 31.8211Z" fill="#48466D"/>
<path d="M124.146 24.4181C124.206 23.3583 123.04 22.4312 121.541 22.3471C120.042 22.2632 118.778 23.0542 118.718 24.114C118.657 25.1737 119.824 26.1009 121.323 26.1848C122.822 26.2688 124.086 25.4777 124.146 24.4181Z" fill="#48466D"/>
<path d="M119.063 34.1839C117.741 33.4708 116.262 33.6501 115.758 34.5846C115.255 35.5189 115.918 36.8546 117.239 37.5678C118.561 38.2809 120.04 38.1016 120.543 37.1672C121.047 36.2328 120.384 34.8971 119.063 34.1839Z" fill="#48466D"/>
</g>
</svg>
