<svg width="157" height="42" viewBox="0 0 157 42" fill="none" xmlns="http://www.w3.org/2000/svg">
<g opacity="0.15">
<path d="M5.08205 14.1035L5.26592 14.1277L5.569 14.147L5.76027 14.155L6.16462 14.1222L6.58205 14.0172L7.01966 13.8238L7.52789 13.6036L7.95822 13.4264L8.41376 13.2801L8.84734 13.1823L9.28977 13.1081L9.85296 13.0688L10.2266 13.0611L10.6472 13.0357L11.1221 12.9761L11.5792 12.8696L11.8378 12.7712L12.08 12.6655L12.3678 12.5022L12.6288 12.2684L12.9264 11.9535L13.1429 11.6019L13.3181 11.2125L13.4375 10.8172L13.4839 10.1943L13.3611 9.51449L13.1741 9.02052L12.9449 8.66385L12.6672 8.2852L12.2241 7.75418L11.8386 7.26854L11.5811 6.80152L11.288 6.24038L10.7903 4.74808L10.7531 4.61426L10.5222 4.21777L10.221 3.84814L9.78597 3.51581L9.37762 3.25414L8.89881 3.01917L8.55287 2.9221L8.03342 2.86418L7.51728 2.88561L7.12336 2.98161L6.70032 3.14264L6.26585 3.41548L5.85075 3.77516L5.61638 4.0796L5.36658 4.59176L5.25376 5.14591L5.26085 5.5199L5.2997 5.69336L5.33035 6.05847L5.36822 6.40722L5.40455 6.71621L5.40121 7.02697L5.4035 7.28172L5.35889 7.55431L5.25824 7.82129L5.07091 8.10783L4.92011 8.31318L4.57397 8.60627L4.14271 8.95868L3.73164 9.22271L3.38395 9.47604L3.08481 9.75135L2.87394 10.0467L2.73367 10.3154L2.64763 10.5499L2.58435 10.9507L2.59051 11.4999L2.67136 11.9265L2.85836 12.4204L3.07293 12.8096L3.41554 13.2174L3.7784 13.5368L4.11298 13.7458L4.48564 13.9134L4.70366 13.9919L5.08205 14.1035Z" fill="#48466D"/>
<path d="M17.5387 16.3685C17.004 17.2854 15.5124 17.4113 14.2071 16.6497C12.9019 15.8879 12.2772 14.527 12.812 13.61C13.3466 12.6931 14.8383 12.5672 16.1436 13.3288C17.4488 14.0906 18.0735 15.4515 17.5387 16.3685Z" fill="#48466D"/>
<path d="M16.6096 12.3107C15.1737 11.8395 14.2782 10.6399 14.6096 9.63137C14.941 8.62285 16.3736 8.18743 17.8095 8.65865C19.2454 9.12989 20.1408 10.3294 19.8095 11.338C19.478 12.3464 18.0454 12.782 16.6096 12.3107Z" fill="#48466D"/>
<path d="M12.0254 18.1279C11.3902 18.9784 9.90054 18.9387 8.69818 18.0395C7.49585 17.1402 7.03598 15.7217 7.67116 14.8712C8.30629 14.0209 9.79598 14.0605 10.9983 14.9598C12.2007 15.859 12.6605 17.2776 12.0254 18.1279Z" fill="#48466D"/>
<path d="M14.4083 7.37913C12.9378 7.07607 11.9198 5.98782 12.1347 4.94833C12.3496 3.90893 13.7161 3.31198 15.1866 3.6149C16.6572 3.91796 17.6752 5.00621 17.4603 6.04558C17.2453 7.08507 15.8789 7.68205 14.4083 7.37913Z" fill="#48466D"/>
</g>
<g opacity="0.15">
<path d="M140.689 10.8478L140.874 10.8509L141.177 10.8763L141.367 10.8964L141.762 10.9881L142.16 11.1533L142.564 11.4088L143.035 11.7011L143.434 11.9396L143.864 12.1511L144.278 12.3114L144.705 12.4497L145.256 12.5713L145.625 12.6337L146.037 12.7206L146.498 12.8492L146.935 13.0216L147.176 13.1568L147.4 13.2969L147.661 13.5007L147.885 13.7703L148.133 14.1254L148.295 14.5049L148.411 14.9159L148.472 15.3244L148.426 15.9474L148.205 16.6018L147.947 17.063L147.668 17.3822L147.338 17.716L146.822 18.1762L146.369 18.6001L146.046 19.0243L145.674 19.5363L144.963 20.9395L144.906 21.0664L144.62 21.4247L144.267 21.7461L143.788 22.0111L143.346 22.21L142.838 22.3722L142.482 22.4174L141.959 22.3985L141.452 22.3016L141.076 22.1488L140.681 21.9275L140.292 21.5939L139.934 21.1772L139.747 20.8416L139.575 20.2984L139.544 19.7337L139.606 19.3648L139.67 19.1989L139.754 18.8422L139.843 18.5028L139.924 18.2025L139.966 17.8946L140.006 17.6429L140.002 17.3668L139.941 17.0879L139.798 16.777L139.679 16.5517L139.38 16.211L139.005 15.7992L138.637 15.4777L138.33 15.1761L138.075 14.8599L137.909 14.5367L137.81 14.2504L137.759 14.0059L137.755 13.6001L137.842 13.0578L137.985 12.6476L138.242 12.1864L138.511 11.833L138.91 11.4798L139.316 11.2171L139.678 11.0595L140.071 10.9483L140.298 10.9027L140.689 10.8478Z" fill="#48466D"/>
<path d="M153.343 10.4348C152.949 9.44942 151.492 9.10603 150.089 9.66792C148.686 10.2299 147.868 11.4845 148.263 12.47C148.657 13.4555 150.114 13.7988 151.517 13.237C152.92 12.675 153.737 11.4204 153.343 10.4348Z" fill="#48466D"/>
<path d="M151.829 14.3124C150.339 14.5679 149.277 15.6232 149.457 16.6694C149.637 17.7156 150.99 18.3565 152.48 18.101C153.969 17.8455 155.031 16.7903 154.851 15.7441C154.671 14.6979 153.318 14.0569 151.829 14.3124Z" fill="#48466D"/>
<path d="M148.147 7.88558C147.644 6.95114 146.164 6.77184 144.843 7.48492C143.522 8.19814 142.859 9.53377 143.362 10.4682C143.866 11.4026 145.345 11.582 146.667 10.8688C147.988 10.1557 148.651 8.81991 148.147 7.88558Z" fill="#48466D"/>
<path d="M148.928 18.8677C147.428 18.9517 146.262 19.8789 146.322 20.9386C146.382 21.9983 147.646 22.7893 149.145 22.7054C150.644 22.6213 151.811 21.6942 151.751 20.6346C151.691 19.5748 150.427 18.7838 148.928 18.8677Z" fill="#48466D"/>
</g>
<g opacity="0.15">
<path d="M26.3329 35.7117L26.5181 35.7035L26.82 35.6699L27.0097 35.6446L27.4022 35.5421L27.7951 35.3662L28.1924 35.0997L28.6547 34.7946L29.0477 34.5453L29.471 34.3222L29.881 34.1506L30.3038 34.0007L30.8516 33.8642L31.2182 33.7918L31.6281 33.6936L32.0854 33.5525L32.517 33.3682L32.7546 33.2265L32.9748 33.0803L33.2299 32.8695L33.4463 32.5939L33.6847 32.2321L33.8369 31.8483L33.9418 31.4343L33.9907 31.0244L33.9282 30.4028L33.6892 29.7547L33.4193 29.3007L33.1317 28.9893L32.7924 28.6646L32.2638 28.2186L31.7999 27.8073L31.4651 27.392L31.0791 26.8903L30.3299 25.5071L30.2699 25.3818L29.9737 25.0314L29.6129 24.7197L29.1268 24.468L28.6792 24.2812L28.1669 24.1329L27.8093 24.0974L27.2877 24.1306L26.7831 24.2413L26.4118 24.4042L26.0232 24.6363L25.6427 24.9804L25.2964 25.4067L25.1184 25.7472L24.9614 26.295L24.9465 26.8603L25.0184 27.2274L25.0868 27.3915L25.1804 27.7457L25.2782 28.0826L25.3677 28.3806L25.4183 28.6872L25.4648 28.9377L25.4682 29.2139L25.4155 29.4943L25.2807 29.809L25.1679 30.0374L24.8779 30.3862L24.5144 30.8081L24.1554 31.1395L23.857 31.4494L23.6102 31.7724L23.4538 32.0999L23.3623 32.3888L23.3183 32.6347L23.3256 33.0405L23.427 33.5802L23.5807 33.9863L23.8507 34.4403L24.1296 34.7863L24.5378 35.1284L24.9506 35.3799L25.3164 35.5277L25.7125 35.628L25.9408 35.6674L26.3329 35.7117Z" fill="#48466D"/>
<path d="M38.9936 35.7792C38.6262 36.775 37.1791 37.158 35.7614 36.6346C34.3437 36.1111 33.4922 34.8793 33.8597 33.8834C34.2269 32.8875 35.6741 32.5045 37.0918 33.0279C38.5095 33.5514 39.361 34.7832 38.9936 35.7792Z" fill="#48466D"/>
<path d="M37.3741 31.9443C35.8781 31.7296 34.788 30.7037 34.9392 29.653C35.0904 28.6023 36.4257 27.9247 37.9216 28.1394C39.4175 28.3541 40.5076 29.38 40.3564 30.4307C40.2051 31.4814 38.8698 32.1591 37.3741 31.9443Z" fill="#48466D"/>
<path d="M33.8696 38.4692C33.3918 39.4171 31.9178 39.6367 30.5776 38.9599C29.2374 38.283 28.5382 36.966 29.016 36.0181C29.4938 35.0704 30.9678 34.8507 32.308 35.5276C33.6483 36.2044 34.3474 37.5215 33.8696 38.4692Z" fill="#48466D"/>
<path d="M34.3498 27.4699C32.849 27.4268 31.6574 26.5319 31.6886 25.4709C31.7198 24.4099 32.9618 23.5848 34.4626 23.6277C35.9634 23.6708 37.1549 24.5658 37.1238 25.6267C37.0926 26.6877 35.8506 27.5129 34.3498 27.4699Z" fill="#48466D"/>
</g>
<g opacity="0.15">
<path d="M58.9362 27.9243L59.1172 27.8841L59.4086 27.7985L59.5911 27.7407L59.9599 27.5716L60.3162 27.3301L60.6613 26.9987L61.0635 26.618L61.4073 26.3042L61.7853 26.011L62.1593 25.7708L62.5497 25.5498L63.0655 25.3202L63.414 25.1852L63.8005 25.0174L64.2264 24.799L64.6195 24.5426L64.8288 24.3617L65.0203 24.1795L65.2349 23.9276L65.4002 23.6187L65.5721 23.221L65.6553 22.8166L65.6868 22.3907L65.6637 21.9784L65.4943 21.3772L65.1464 20.7804L64.8017 20.3802L64.4644 20.1234L64.0739 19.8626L63.4759 19.5151L62.9476 19.1906L62.5458 18.8398L62.0785 18.4128L61.1005 17.1807L61.0197 17.0677L60.6672 16.7741L60.2577 16.5298L59.7352 16.3662L59.262 16.26L58.7317 16.203L58.3734 16.2301L57.8655 16.3533L57.3878 16.55L57.0505 16.7749L56.708 17.0709L56.3931 17.4759L56.126 17.9559L56.0099 18.3221L55.9503 18.8888L56.0339 19.4481L56.1684 19.7972L56.2643 19.9469L56.4179 20.2795L56.5728 20.5942L56.7126 20.8722L56.8158 21.1653L56.9051 21.4039L56.9564 21.6753L56.9531 21.9606L56.8751 22.294L56.8036 22.5385L56.5786 22.9323L56.2939 23.411L55.9979 23.7997L55.7578 24.1567L55.5709 24.5177L55.4737 24.8674L55.4338 25.1678L55.4332 25.4175L55.5108 25.8159L55.7044 26.3298L55.9263 26.703L56.271 27.1032L56.6057 27.3956L57.0671 27.6616L57.5173 27.8376L57.9032 27.9196L58.3107 27.9496L58.5424 27.9488L58.9362 27.9243Z" fill="#48466D"/>
<path d="M71.4161 25.7922C71.2273 26.8367 69.8687 27.4652 68.3816 27.1959C66.8946 26.9266 65.8421 25.8613 66.031 24.8167C66.2198 23.7722 67.5785 23.1438 69.0655 23.413C70.5526 23.6824 71.6051 24.7476 71.4161 25.7922Z" fill="#48466D"/>
<path d="M69.1552 22.2969C67.6447 22.3452 66.393 21.5242 66.3595 20.4632C66.3259 19.4022 67.5232 18.503 69.0337 18.4547C70.5442 18.4064 71.7958 19.2274 71.8294 20.2884C71.8629 21.3494 70.6656 22.2487 69.1552 22.2969Z" fill="#48466D"/>
<path d="M66.8372 29.3312C66.5312 30.3477 65.1178 30.8199 63.6804 30.3861C62.243 29.9522 61.3257 28.7766 61.6317 27.7602C61.9377 26.7439 63.3511 26.2716 64.7885 26.7054C66.2259 27.1392 67.1432 28.3149 66.8372 29.3312Z" fill="#48466D"/>
<path d="M65.4002 18.4156C63.9147 18.6338 62.5859 17.9593 62.4323 16.909C62.2788 15.8588 63.3586 14.8305 64.8441 14.6122C66.3296 14.394 67.6584 15.0685 67.812 16.1187C67.9655 17.169 66.8857 18.1973 65.4002 18.4156Z" fill="#48466D"/>
</g>
<g opacity="0.15">
<path d="M93.258 38.0879L93.4144 37.9882L93.659 37.8081L93.8107 37.6914L94.0993 37.4063L94.3516 37.0575L94.5625 36.6281L94.8103 36.1327L95.026 35.7204L95.281 35.3155L95.5503 34.9619L95.8415 34.6207L96.2476 34.2285L96.5289 33.9825L96.8348 33.6926L97.1603 33.3417L97.442 32.9663L97.5768 32.7248L97.6945 32.4881L97.8099 32.178L97.8596 31.8311L97.8851 31.3986L97.825 30.9901L97.7089 30.5792L97.5462 30.1997L97.1814 29.6926L96.6504 29.2508L96.1896 28.9926L95.7848 28.8667L95.3286 28.7552L94.6478 28.6332L94.0404 28.509L93.5429 28.3167L92.9577 28.0753L91.6173 27.252L91.5027 27.1734L91.071 27.0181L90.6027 26.9286L90.0558 26.9536L89.5748 27.0156L89.057 27.1434L88.7295 27.2914L88.2944 27.5809L87.9128 27.9291L87.6727 28.2559L87.4522 28.6512L87.2947 29.1394L87.2079 29.6818L87.2241 30.0656L87.3619 30.6185L87.6317 31.1156L87.8775 31.3975L88.0188 31.5054L88.277 31.7654L88.5302 32.0082L88.7566 32.2216L88.9538 32.4618L89.1193 32.6554L89.2603 32.8929L89.3548 33.1622L89.3955 33.5021L89.412 33.7563L89.3352 34.2033L89.2314 34.7505L89.0862 35.217L88.9827 35.6345L88.9305 36.0377L88.9589 36.3995L89.0241 36.6955L89.1089 36.9304L89.3181 37.2782L89.6758 37.6949L90.0119 37.9697L90.4727 38.2279L90.8872 38.3881L91.4118 38.4803L91.8951 38.4917L92.2857 38.4367L92.679 38.3256L92.8964 38.2456L93.258 38.0879Z" fill="#48466D"/>
<path d="M104.256 31.816C104.436 32.8621 103.374 33.9173 101.885 34.1729C100.395 34.4284 99.0421 33.7873 98.8624 32.7411C98.6825 31.6951 99.7443 30.6398 101.234 30.3842C102.723 30.1287 104.077 30.7698 104.256 31.816Z" fill="#48466D"/>
<path d="M100.936 29.3047C99.5335 29.8667 98.0764 29.5234 97.6821 28.5378C97.2876 27.5522 98.1052 26.2978 99.5081 25.7358C100.911 25.1738 102.368 25.5172 102.762 26.5027C103.157 27.4883 102.339 28.7429 100.936 29.3047Z" fill="#48466D"/>
<path d="M101.164 36.7077C101.224 37.7675 100.057 38.6946 98.5581 38.7786C97.059 38.8625 95.7949 38.0715 95.7348 37.0118C95.6748 35.9521 96.8414 35.0248 98.3405 34.9409C99.8396 34.8569 101.104 35.648 101.164 36.7077Z" fill="#48466D"/>
<path d="M96.08 26.9418C94.7587 27.6549 93.2793 27.4756 92.7758 26.5412C92.2723 25.6068 92.9353 24.2712 94.2566 23.558C95.5779 22.8449 97.0572 23.0242 97.5607 23.9585C98.0642 24.893 97.4012 26.2286 96.08 26.9418Z" fill="#48466D"/>
</g>
<g opacity="0.15">
<path d="M116.241 18.9621L116.397 18.8624L116.642 18.6824L116.793 18.5656L117.082 18.2806L117.334 17.9318L117.545 17.5023L117.793 17.007L118.009 16.5946L118.264 16.1897L118.533 15.8361L118.824 15.4949L119.23 15.1028L119.512 14.8567L119.817 14.5669L120.143 14.216L120.425 13.8406L120.559 13.599L120.677 13.3623L120.793 13.0522L120.842 12.7053L120.868 12.2728L120.808 11.8644L120.692 11.4534L120.529 11.0739L120.164 10.5668L119.633 10.1251L119.172 9.86686L118.767 9.74095L118.311 9.62941L117.631 9.50744L117.023 9.3832L116.526 9.19098L115.94 8.94952L114.6 8.12622L114.485 8.04765L114.054 7.89231L113.585 7.8028L113.038 7.82784L112.557 7.88987L112.04 8.01764L111.712 8.16565L111.277 8.45518L110.895 8.80336L110.655 9.13011L110.435 9.5254L110.277 10.0137L110.191 10.556L110.207 10.9399L110.345 11.4928L110.614 11.9898L110.86 12.2717L111.001 12.3797L111.26 12.6396L111.513 12.8825L111.739 13.0958L111.936 13.336L112.102 13.5297L112.243 13.7672L112.338 14.0364L112.378 14.3763L112.395 14.6306L112.318 15.0776L112.214 15.6247L112.069 16.0912L111.965 16.5088L111.913 16.912L111.942 17.2738L112.007 17.5697L112.092 17.8047L112.301 18.1524L112.658 18.5691L112.995 18.844L113.455 19.1022L113.87 19.2624L114.395 19.3545L114.878 19.3659L115.268 19.311L115.662 19.1999L115.879 19.1198L116.241 18.9621Z" fill="#48466D"/>
<path d="M127.239 12.6902C127.419 13.7363 126.357 14.7915 124.868 15.0471C123.378 15.3026 122.025 14.6616 121.845 13.6154C121.665 12.5693 122.727 11.514 124.216 11.2584C125.706 11.003 127.059 11.644 127.239 12.6902Z" fill="#48466D"/>
<path d="M123.919 10.1789C122.516 10.741 121.059 10.3976 120.665 9.41202C120.27 8.42647 121.088 7.17204 122.491 6.61003C123.894 6.04803 125.351 6.39141 125.745 7.37696C126.139 8.36254 125.322 9.6171 123.919 10.1789Z" fill="#48466D"/>
<path d="M124.146 17.5819C124.206 18.6417 123.04 19.5688 121.541 19.6529C120.042 19.7368 118.778 18.9458 118.718 17.886C118.657 16.8263 119.824 15.8991 121.323 15.8152C122.822 15.7312 124.086 16.5223 124.146 17.5819Z" fill="#48466D"/>
<path d="M119.063 7.81607C117.741 8.52916 116.262 8.34987 115.758 7.41541C115.255 6.48105 115.918 5.14544 117.239 4.43223C118.561 3.71914 120.04 3.89843 120.543 4.83277C121.047 5.76722 120.384 7.10286 119.063 7.81607Z" fill="#48466D"/>
</g>
</svg>
