<svg width="84" height="84" viewBox="0 0 84 84" fill="none" xmlns="http://www.w3.org/2000/svg">
<circle opacity="0.2" cx="42" cy="42" r="42" fill="#FFD2A4"/>
<path d="M56 54.5859L51.3116 49.8975C52.5647 48.2846 53.1559 46.2548 52.9649 44.2213C52.7739 42.1878 51.815 40.3036 50.2835 38.9523C48.752 37.601 46.763 36.8842 44.7215 36.948C42.6801 37.0117 40.7397 37.8512 39.2954 39.2954C37.8512 40.7396 37.0118 42.68 36.948 44.7215C36.8843 46.7629 37.601 48.7519 38.9523 50.2834C40.3036 51.815 42.1879 52.7739 44.2214 52.9649C46.2549 53.1559 48.2847 52.5646 49.8975 51.3115L54.5859 56L56 54.5859ZM45 51C43.8134 51 42.6533 50.6481 41.6666 49.9888C40.6799 49.3295 39.9109 48.3925 39.4568 47.2961C39.0026 46.1997 38.8838 44.9933 39.1153 43.8295C39.3468 42.6656 39.9183 41.5965 40.7574 40.7574C41.5965 39.9182 42.6656 39.3468 43.8295 39.1153C44.9934 38.8838 46.1998 39.0026 47.2962 39.4567C48.3925 39.9108 49.3296 40.6799 49.9889 41.6666C50.6482 42.6533 51 43.8133 51 45C50.9983 46.5908 50.3656 48.1159 49.2408 49.2407C48.1159 50.3656 46.5908 50.9983 45 51Z" fill="#FFC080"/>
<path d="M36 38H28V40H36V38Z" fill="#FFC080"/>
<path d="M44 28H28V30H44V28Z" fill="#FFC080"/>
<path d="M44 33H28V35H44V33Z" fill="#FFC080"/>
</svg>
