<svg width="84" height="84" viewBox="0 0 84 84" fill="none" xmlns="http://www.w3.org/2000/svg">
<circle opacity="0.1" cx="42" cy="42" r="42" fill="#FF9E9E"/>
<path d="M48 46H46V56H48V46Z" fill="#ED9393"/>
<path d="M32 49H30V56H32V49Z" fill="#ED9393"/>
<path d="M42 56H40V52C39.9997 51.7349 39.8943 51.4807 39.7068 51.2932C39.5193 51.1057 39.2651 51.0003 39 51H37V56H35V49H39C39.7954 49.0009 40.5579 49.3172 41.1204 49.8796C41.6828 50.4421 41.9991 51.2046 42 52V56Z" fill="#ED9393"/>
<path d="M33.5 48C32.5721 47.9989 31.6825 47.6298 31.0263 46.9737C30.3702 46.3175 30.0011 45.4279 30 44.5V43H28V41H32V44.5C32 44.8978 32.158 45.2794 32.4393 45.5607C32.7206 45.842 33.1022 46 33.5 46C33.8978 46 34.2794 45.842 34.5607 45.5607C34.842 45.2794 35 44.8978 35 44.5V41H39V43H37V44.5C36.9989 45.4279 36.6298 46.3175 35.9737 46.9737C35.3175 47.6298 34.4279 47.9989 33.5 48Z" fill="#ED9393"/>
<path d="M53 36H47.354C46.7539 35.9981 46.1672 36.1769 45.6704 36.5133C45.1735 36.8497 44.7895 37.3279 44.5684 37.8857L43.1265 41.4912L39.5186 46.0012L41.0806 47.2502L44.7806 42.6252L46.4256 38.6291C46.4991 38.4431 46.627 38.2835 46.7927 38.1713C46.9583 38.059 47.1539 37.9994 47.354 38H53C53.2651 38.0002 53.5193 38.1057 53.7068 38.2932C53.8943 38.4806 53.9997 38.7349 54 39V46H51V56H53V48H54C54.5302 47.9994 55.0386 47.7885 55.4135 47.4135C55.7884 47.0386 55.9993 46.5302 56 46V39C55.9991 38.2046 55.6827 37.4421 55.1203 36.8796C54.5579 36.3172 53.7953 36.0009 53 36Z" fill="#ED9393"/>
<path d="M50 35C49.2089 35 48.4355 34.7654 47.7777 34.3259C47.1199 33.8864 46.6072 33.2616 46.3045 32.5307C46.0017 31.7998 45.9225 30.9956 46.0769 30.2196C46.2312 29.4437 46.6122 28.731 47.1716 28.1716C47.731 27.6122 48.4437 27.2312 49.2196 27.0769C49.9956 26.9225 50.7998 27.0017 51.5307 27.3045C52.2616 27.6072 52.8864 28.1199 53.3259 28.7777C53.7654 29.4355 54 30.2089 54 31C53.9988 32.0605 53.577 33.0772 52.8271 33.8271C52.0772 34.577 51.0605 34.9988 50 35ZM50 29C49.6044 29 49.2178 29.1173 48.8889 29.3371C48.56 29.5568 48.3036 29.8692 48.1522 30.2346C48.0009 30.6001 47.9613 31.0022 48.0384 31.3902C48.1156 31.7781 48.3061 32.1345 48.5858 32.4142C48.8655 32.6939 49.2219 32.8844 49.6098 32.9616C49.9978 33.0387 50.3999 32.9991 50.7654 32.8478C51.1308 32.6964 51.4432 32.44 51.6629 32.1111C51.8827 31.7822 52 31.3956 52 31C51.9994 30.4697 51.7886 29.9614 51.4136 29.5864C51.0386 29.2114 50.5303 29.0006 50 29Z" fill="#ED9393"/>
</svg>
