<svg width="84" height="84" viewBox="0 0 84 84" fill="none" xmlns="http://www.w3.org/2000/svg">
<circle opacity="0.1" cx="42" cy="42" r="42" fill="#B1E0DA"/>
<path d="M50 39H48C47.9991 38.2046 47.6828 37.4421 47.1204 36.8796C46.5579 36.3172 45.7954 36.0009 45 36V34C46.3256 34.0015 47.5965 34.5288 48.5339 35.4661C49.4712 36.4035 49.9985 37.6744 50 39Z" fill="#8ED2C9"/>
<path d="M54 39H52C51.9979 37.1441 51.2598 35.3648 49.9475 34.0525C48.6352 32.7402 46.8559 32.0021 45 32V30C47.3861 30.0026 49.6738 30.9517 51.361 32.639C53.0483 34.3262 53.9974 36.6139 54 39Z" fill="#8ED2C9"/>
<path d="M52 55H51.83C32.18 53.87 29.39 37.29 29 32.23C28.9698 31.8372 29.0173 31.4423 29.1397 31.0678C29.2621 30.6933 29.4571 30.3466 29.7135 30.0475C29.9699 29.7484 30.2827 29.5027 30.6341 29.3245C30.9854 29.1463 31.3684 29.039 31.7612 29.0088C31.8404 29.0029 31.92 29 32 29H37.27C37.6706 28.9996 38.062 29.1195 38.3937 29.3442C38.7253 29.5688 38.9818 29.8879 39.13 30.26L40.65 34C40.7964 34.3635 40.8327 34.7621 40.7545 35.1461C40.6763 35.5301 40.4869 35.8827 40.21 36.16L38.08 38.31C38.4114 40.2013 39.3164 41.945 40.6724 43.3045C42.0283 44.664 43.7696 45.5737 45.66 45.91L47.83 43.76C48.1115 43.4862 48.4674 43.3013 48.8533 43.2283C49.2392 43.1554 49.638 43.1977 50 43.35L53.77 44.86C54.1366 45.0129 54.4493 45.2714 54.6683 45.6027C54.8874 45.9339 55.0029 46.3229 55 46.72V52C55 52.7956 54.684 53.5587 54.1214 54.1213C53.5588 54.6839 52.7957 55 52 55ZM32 31C31.8687 30.9996 31.7386 31.025 31.6171 31.0749C31.4956 31.1248 31.3852 31.1981 31.292 31.2906C31.1988 31.3832 31.1248 31.4932 31.0742 31.6144C31.0235 31.7355 30.9973 31.8655 30.9968 31.9968C30.9968 32.0246 30.9979 32.0523 31 32.08C31.46 38 34.41 52 51.94 53C52.0711 53.0079 52.2025 52.9899 52.3266 52.947C52.4507 52.9041 52.5652 52.8372 52.6635 52.7501C52.7617 52.6629 52.8419 52.5573 52.8993 52.4392C52.9567 52.3211 52.9904 52.1929 52.9982 52.0618C52.9994 52.0412 53 52.0206 53 52V46.72L49.23 45.21L46.36 48.06L45.88 48C37.18 46.91 36 38.21 36 38.12L35.94 37.64L38.78 34.77L37.28 31H32Z" fill="#8ED2C9"/>
</svg>
