<?xml version="1.0" standalone="no"?>
<!DOCTYPE svg PUBLIC "-//W3C//DTD SVG 20010904//EN"
 "http://www.w3.org/TR/2001/REC-SVG-20010904/DTD/svg10.dtd">
<svg version="1.0" xmlns="http://www.w3.org/2000/svg"
 width="520.000000pt" height="520.000000pt" viewBox="0 0 520.000000 520.000000"
 preserveAspectRatio="xMidYMid meet">
<metadata>
Created by potrace 1.14, written by Peter Selinger 2001-2017
</metadata>
<g transform="translate(0.000000,520.000000) scale(0.100000,-0.100000)"
fill="#000000" stroke="none">
<path d="M2375 4380 c-161 -42 -279 -121 -383 -256 -36 -47 -94 -163 -113
-227 l-12 -44 -61 15 c-228 52 -476 -17 -635 -179 -135 -137 -199 -290 -206
-494 -5 -153 27 -309 92 -438 l24 -48 -57 -52 c-67 -60 -144 -173 -174 -254
-130 -347 7 -757 335 -1008 82 -63 241 -143 295 -150 3 0 10 -3 15 -7 9 -5 66
-16 130 -24 11 -1 52 -3 90 -3 l70 -1 60 -81 c138 -188 343 -332 589 -414 207
-70 397 -79 652 -31 56 11 188 58 259 94 143 71 453 257 530 317 294 229 463
577 463 955 0 187 -38 367 -110 517 l-24 48 27 44 c16 24 42 82 59 129 83 231
71 489 -34 717 -31 68 -95 174 -119 201 -162 173 -272 246 -438 289 -123 33
-300 24 -405 -20 -39 -16 -45 -13 -75 38 -33 58 -191 215 -251 250 -212 126
-409 165 -593 117z m335 -178 c152 -50 312 -184 402 -339 63 -107 91 -119 173
-77 167 87 366 78 532 -23 210 -128 352 -382 356 -638 3 -185 -28 -295 -119
-428 -19 -27 -34 -59 -34 -72 0 -13 15 -54 34 -91 50 -102 64 -140 86 -223 91
-362 -16 -744 -280 -1003 -96 -93 -140 -124 -395 -270 -227 -130 -332 -176
-445 -194 -14 -2 -36 -7 -50 -10 -50 -13 -248 -11 -326 2 -295 51 -552 217
-709 457 -27 42 -59 80 -70 85 -11 4 -70 7 -131 5 -119 -3 -204 14 -302 59
-193 89 -362 280 -429 483 -32 99 -41 260 -18 345 34 129 110 239 216 311 60
41 79 64 79 96 0 11 -24 67 -54 126 -73 143 -95 238 -91 382 3 119 24 195 79
290 84 142 249 236 421 238 96 1 137 -6 225 -37 113 -39 141 -22 165 99 48
229 197 396 400 445 57 14 217 4 285 -18z"/>
<path d="M2463 3976 c-209 -66 -278 -332 -155 -594 14 -31 30 -58 34 -60 4 -2
8 -8 8 -14 0 -5 6 -15 13 -23 7 -7 24 -26 38 -41 108 -127 276 -181 404 -129
91 37 148 103 182 210 14 42 19 172 8 215 -3 14 -8 36 -11 50 -2 14 -25 66
-50 117 -81 162 -220 268 -365 278 -37 2 -81 -1 -106 -9z m162 -180 c118 -56
208 -210 206 -353 -2 -145 -88 -213 -204 -160 -125 57 -221 227 -211 376 4 60
39 126 77 145 44 21 74 20 132 -8z"/>
<path d="M3475 3620 c-158 -34 -263 -176 -270 -367 -13 -327 250 -605 508
-537 88 23 164 91 207 185 26 57 25 82 -3 115 -18 20 -33 27 -60 27 -44 0 -62
-14 -93 -74 -91 -180 -314 -84 -380 164 -29 111 5 250 73 297 67 46 169 19
239 -62 43 -52 90 -159 93 -216 1 -7 12 -24 26 -37 45 -46 116 -26 139 38 10
30 -22 144 -62 221 -91 174 -268 278 -417 246z"/>
<path d="M1597 3469 c-21 -5 -51 -16 -68 -24 -41 -22 -109 -84 -109 -101 0 -8
-4 -14 -8 -14 -12 0 -42 -96 -42 -134 1 -42 28 -75 70 -82 48 -8 84 21 99 82
13 53 58 103 93 106 57 3 90 -3 135 -26 163 -83 268 -320 194 -440 -76 -122
-295 -32 -389 160 -38 77 -97 97 -146 48 -36 -36 -33 -74 9 -150 130 -232 386
-345 564 -249 235 128 191 533 -80 737 -102 76 -222 109 -322 87z"/>
<path d="M2664 2656 c-138 -46 -230 -153 -252 -296 -9 -59 -8 -100 2 -193 17
-148 9 -203 -40 -285 -80 -132 -91 -283 -31 -431 41 -102 142 -211 195 -211
51 0 92 40 92 91 0 11 -23 44 -51 72 -117 118 -137 264 -54 401 32 54 51 98
60 147 8 38 6 189 -3 251 -20 135 7 218 86 269 41 27 54 30 102 26 31 -2 74
-14 97 -26 54 -27 85 -27 119 2 22 19 27 32 26 62 -2 49 -14 63 -92 98 -77 35
-189 45 -256 23z"/>
<path d="M3074 2490 c-29 -12 -54 -49 -54 -80 0 -36 32 -68 106 -102 74 -35
93 -38 204 -41 106 -3 178 -34 243 -106 103 -116 98 -264 -14 -365 -70 -64
-112 -77 -287 -91 -40 -3 -92 -14 -116 -24 -42 -19 -136 -113 -136 -138 0 -7
-4 -13 -9 -13 -5 0 -13 -10 -16 -21 -19 -57 -145 -145 -224 -156 -70 -9 -82
-14 -100 -44 -21 -34 -15 -79 14 -108 29 -30 151 -17 240 24 89 42 149 98 225
210 69 102 59 97 227 109 205 15 378 152 427 339 63 240 -125 505 -386 546
-34 6 -85 9 -112 7 -39 -2 -64 5 -118 31 -74 35 -81 37 -114 23z"/>
<path d="M1425 2441 c-92 -23 -172 -92 -211 -182 -33 -76 -29 -216 8 -306 53
-127 151 -236 267 -297 208 -109 413 -60 502 119 28 57 32 75 31 142 0 43 -3
85 -5 93 -2 8 -7 29 -12 45 -16 63 -81 169 -139 229 -67 69 -156 126 -232 148
-55 16 -163 21 -209 9z m213 -196 c103 -56 175 -141 204 -240 55 -188 -75
-292 -256 -207 -214 100 -305 391 -146 470 41 20 140 9 198 -23z"/>
</g>
</svg>
